<?xml version="1.0" encoding="UTF-8"?>
<svg width="20px" height="20px" viewBox="0 0 20 20" version="1.1" xmlns="http://www.w3.org/2000/svg" xmlns:xlink="http://www.w3.org/1999/xlink">
    <!-- Generator: Sketch 53 (72520) - https://sketchapp.com -->
    <title>icon/eye-off</title>
    <desc>Created with Sketch.</desc>
    <g id="Atomic-Design---Elements" stroke="none" stroke-width="1" fill="none" fill-rule="evenodd">
        <g id="Atoms_01" transform="translate(-640.000000, -5596.000000)">
            <rect fill="#FFFFFF" x="0" y="0" width="1680" height="6890"></rect>
            <g id="input-password" transform="translate(160.000000, 4993.000000)" fill-rule="nonzero" opacity="0.7">
                <g id="input/password/view-characters" transform="translate(0.000000, 573.000000)">
                    <g id="icon/eye-off" transform="translate(480.000000, 30.000000)">
                        <rect id="icon/eye-off-bg" x="0" y="0" width="20" height="20"></rect>
                        <path d="M12.1857023,12.8928091 L11.0249107,11.7320175 C10.56727,12.0188748 10.0053204,12.1125209 9.46770181,11.9752226 C8.7590795,11.7942529 8.20574716,11.2409205 8.02477746,10.5322982 C7.88747911,9.99467967 7.98112526,9.43273008 8.26798258,8.97508932 L6.99354881,7.70065555 C6.22497198,8.35084212 5.57436124,9.12945529 5.07092344,10.0022086 C5.12811945,10.1006541 5.20032526,10.2192104 5.28720723,10.3537373 C5.57459355,10.7987225 5.91412439,11.2440089 6.30226865,11.6580294 C7.38809618,12.8162455 8.62740126,13.5 9.99182638,13.5000668 C10.7659937,13.4874096 11.5206754,13.2768787 12.1857023,12.8928091 Z M13.3176888,12.610582 C13.3213481,12.6141307 13.3249625,12.6177446 13.3285303,12.6214234 L15.8535534,15.1464466 C16.0488156,15.3417088 16.0488156,15.6582912 15.8535534,15.8535534 C15.6582913,16.0488155 15.3417088,16.0488155 15.1464467,15.8535534 L12.9130363,13.620143 C12.0479953,14.1767792 11.0413766,14.4830325 10,14.5 C8.31009882,14.5 6.83065391,13.6837545 5.57273144,12.3419706 C5.1405632,11.8809911 4.76525029,11.3887775 4.44716785,10.8962627 C4.25498367,10.5986872 4.1230705,10.3641749 4.05278645,10.2236068 C3.98013064,10.0782952 3.98260528,9.90674234 4.05942221,9.76358686 C4.62517746,8.70924941 5.37984759,7.76983179 6.28423815,6.99134487 L4.14644665,4.85355339 C3.95118451,4.65829124 3.95118451,4.34170876 4.14644665,4.14644661 C4.3417088,3.95118446 4.65829129,3.95118446 4.85355343,4.14644661 L7.37771335,6.67060652 C7.38135585,6.67413945 7.3849537,6.67773683 7.38850545,6.68139862 L9.29158369,8.58447687 C9.29275147,8.58563334 9.29391485,8.5867967 9.29507378,8.58796695 L11.4120331,10.7049263 C11.4132033,10.7060852 11.4143667,10.7072486 11.4155232,10.7084164 L13.3176887,12.6105818 Z M9.01394497,9.7210517 C8.95426677,9.90002836 8.94531232,10.0954625 8.99368046,10.2848574 C9.08416532,10.6391686 9.36083149,10.9158347 9.71514264,11.0063196 C9.90453757,11.0546877 10.0999717,11.0457333 10.2789483,10.9860551 L9.01394497,9.7210517 Z M14.7127929,9.64626272 C14.4254065,9.20127746 14.0858757,8.75599111 13.6977314,8.34197056 C12.6119039,7.18375453 11.3725988,6.5 9.99882507,6.49999862 C9.68411456,6.49925907 9.37038529,6.53511384 9.06395665,6.60684072 C8.79508194,6.66977722 8.52609582,6.50283132 8.46315932,6.23395661 C8.40022282,5.9650819 8.56716873,5.69609577 8.83604343,5.63315928 C9.2179471,5.54376567 9.6089496,5.49907967 10,5.5 C11.6899013,5.5 13.1693462,6.31624547 14.4272686,7.65802944 C14.8594369,8.11900889 15.2347498,8.61122254 15.5528322,9.10373728 C15.7450164,9.40131279 15.8769296,9.6358251 15.9472136,9.7763932 C16.0197428,9.92145151 16.0174102,10.0926774 15.9409565,10.2357061 C15.6210404,10.8342019 15.2395128,11.3976616 14.8025782,11.9169223 C14.6247854,12.1282144 14.3093698,12.1553709 14.0980777,11.9775781 C13.8867857,11.7997853 13.8596291,11.4843697 14.0374219,11.2730777 C14.372109,10.8753297 14.6705713,10.4486847 14.9293464,9.99825576 C14.8721077,9.89971878 14.7998115,9.78100122 14.7127929,9.64626272 Z" fill="#4B453D"></path>
                    </g>
                </g>
            </g>
        </g>
    </g>
</svg>