<?xml version="1.0" encoding="UTF-8"?>
<svg width="20px" height="20px" viewBox="0 0 20 20" version="1.1" xmlns="http://www.w3.org/2000/svg" xmlns:xlink="http://www.w3.org/1999/xlink">
    <!-- Generator: Sketch 53 (72520) - https://sketchapp.com -->
    <title>icon/eye</title>
    <desc>Created with Sketch.</desc>
    <g id="Atomic-Design---Elements" stroke="none" stroke-width="1" fill="none" fill-rule="evenodd">
        <g id="Atoms_01" transform="translate(-640.000000, -5023.000000)">
            <rect fill="#FFFFFF" x="0" y="0" width="1680" height="6890"></rect>
            <g id="input-password" transform="translate(160.000000, 4993.000000)" fill-rule="nonzero" opacity="0.7">
                <g id="input/password/default">
                    <g id="icon/eye" transform="translate(480.000000, 30.000000)">
                        <rect x="0" y="0" width="20" height="20"></rect>
                        <path d="M5.28720719,10.8537373 C5.5745935,11.2987225 5.91412434,11.7440089 6.3022686,12.1580294 C7.38809613,13.3162455 8.62740122,14 10,14 C11.3725988,14 12.6119039,13.3162455 13.6977314,12.1580294 C14.0858757,11.7440089 14.4254065,11.2987225 14.7127928,10.8537373 C14.8003255,10.7182028 14.8729614,10.5988791 14.9303592,10.5 C14.8729614,10.4011209 14.8003255,10.2817972 14.7127928,10.1462627 C14.4254065,9.70127746 14.0858757,9.25599111 13.6977314,8.84197056 C12.6119039,7.68375453 11.3725988,7 10,7 C8.62740122,7 7.38809613,7.68375453 6.3022686,8.84197056 C5.91412434,9.25599111 5.5745935,9.70127746 5.28720719,10.1462627 C5.1996745,10.2817972 5.12703863,10.4011209 5.06964077,10.5 C5.12703863,10.5988791 5.1996745,10.7182028 5.28720719,10.8537373 Z M4.0527864,10.2763932 C4.12307045,10.1358251 4.25498363,9.90131279 4.44716781,9.60373728 C4.76525025,9.11122254 5.14056316,8.61900889 5.5727314,8.15802944 C6.83065387,6.81624547 8.31009878,6 10,6 C11.6899012,6 13.1693461,6.81624547 14.4272686,8.15802944 C14.8594368,8.61900889 15.2347498,9.11122254 15.5528322,9.60373728 C15.7450164,9.90131279 15.8769295,10.1358251 15.9472136,10.2763932 C16.0175955,10.4171569 16.0175955,10.5828431 15.9472136,10.7236068 C15.8769295,10.8641749 15.7450164,11.0986872 15.5528322,11.3962627 C15.2347498,11.8887775 14.8594368,12.3809911 14.4272686,12.8419706 C13.1693461,14.1837545 11.6899012,15 10,15 C8.31009878,15 6.83065387,14.1837545 5.5727314,12.8419706 C5.14056316,12.3809911 4.76525025,11.8887775 4.44716781,11.3962627 C4.25498363,11.0986872 4.12307045,10.8641749 4.0527864,10.7236068 C3.98240453,10.5828431 3.98240453,10.4171569 4.0527864,10.2763932 Z M10,12.5 C8.8954305,12.5 8,11.6045695 8,10.5 C8,9.3954305 8.8954305,8.5 10,8.5 C11.1045695,8.5 12,9.3954305 12,10.5 C12,11.6045695 11.1045695,12.5 10,12.5 Z M10,11.5 C10.5522847,11.5 11,11.0522847 11,10.5 C11,9.94771525 10.5522847,9.5 10,9.5 C9.44771525,9.5 9,9.94771525 9,10.5 C9,11.0522847 9.44771525,11.5 10,11.5 Z" fill="#4B453D"></path>
                    </g>
                </g>
            </g>
        </g>
    </g>
</svg>